# xmcd
#
# Track frame offsets:
#	150
#	14929
#	28662
#	45689
#	58210
#	71245
#	88151
#	104687
#	124650
#	138344
#	154875
#	172667
#	190315
#	205198
#	226576
#	249845
#
# Disc length: 3335 seconds
#
# Revision: 1
# Processed by: cddbd v1.5.1PL2 Copyright (c) Steve Scherf et al.
# Submitted via: audiograbber 1.83.01
#
DISCID=e10d0510
DTITLE=Various Artist - CBE1-11
DYEAR=1900
DGENRE=Karaoke
TTITLE0=Ricky Van Shelton - Statue Of A Fool
TTITLE1=Brooks and Dunn - My Next Broken Heart
TTITLE2=Garth Brooks - If Tomorrow Never Comes
TTITLE3=Trisha Yearwood - Thats What I Like About You
TTITLE4=Patty Loveless - I Try To Think About Elvis
TTITLE5=George Strait - I Cross My Heart
TTITLE6=Joe Diffie - Pickup Man
TTITLE7=Shania Twain - Whose Bed Have Your Boots Been Under
TTITLE8=Randy Travis - On The Other Hand
TTITLE9=Little Texas - God Blessed Texas
TTITLE10=Mary Chapin Carpenter - Shut Up And Kiss Me
TTITLE11=Garth Brooks - The Dance
TTITLE12=Kentucky Head Hunters - Oh, Lonesome Me
TTITLE13=Shania Twain - If Your Not In It For Love
TTITLE14=Travis Tritt - Heres A Quater
TTITLE15=N/A - N/A
EXTD=
EXTT0=
EXTT1=
EXTT2=
EXTT3=
EXTT4=
EXTT5=
EXTT6=
EXTT7=
EXTT8=
EXTT9=
EXTT10=
EXTT11=
EXTT12=
EXTT13=
EXTT14=
EXTT15=
PLAYORDER=
